File Name : I Am Number Four 1080p BRRip H264-Wrath.mp4

File Size
Format : MPEG-4
Format profile : Base Media
Codec ID : isom
File size : 3.97 GiB
Duration : 1h 45mn
Overall bit rate : 5 400 Kbps

Video
ID : 1
Format : AVC
Format/Info : Advanced Video Codec
Format profile : High@L4.1
Format settings, CABAC : Yes
Format settings, ReFrames : 3 frames
Codec ID : avc1
Codec ID/Info : Advanced Video Coding
Duration : 1h 45mn
Bit rate mode : Variable
Bit rate : 4 799 Kbps
Maximum bit rate : 19.7 Mbps
Width : 1 920 pixels
Height : 1 040 pixels
Display aspect ratio : 16:9
Frame rate mode : Constant
Frame rate : 23.976 fps
Resolution : 24 bits
Colorimetry : 4:2:0
Scan type : Progressive
Bits/(Pixel*Frame) : 0.100
Stream size : 3.53 GiB (89%)

Audio #1
ID : 2
Format : AAC
Format/Info : Advanced Audio Codec
Format version : Version 4
Format profile : LC
Format settings, SBR : No
Codec ID : 40
Duration : 1h 45mn
Bit rate mode : Variable
Bit rate : 179 Kbps
Maximum bit rate : 228 Kbps
Channel(s) : 2 channels
Channel positions : L R
Sampling rate : 48.0 KHz
Resolution : 16 bits
Stream size : 135 MiB (3%)

Audio #2
ID : 3
Format : AAC
Format/Info : Advanced Audio Codec
Format version : Version 4
Format profile : LC
Format settings, SBR : No
Codec ID : 40
Duration : 1h 45mn
Bit rate mode : Variable
Bit rate : 419 Kbps
Maximum bit rate : 495 Kbps
Channel(s) : 6 channels
Channel positions : Front: L C R, Rear: L R, LFE
Sampling rate : 48.0 KHz
Resolution : 16 bits
Stream size : 316 MiB (8%)

English SRT : -----
Language : English

Source File : I.Am.Number.Four.1080p.BluRay.x264-TWiZTED

Release Date: 18 February 2011 (USA) 
Genre: Action | Sci-Fi | Thriller 
Plot: John is an extraordinary teen, masking his true identity and passing as a typical high school student to elude a deadly enemy seeking to destroy him. Three like him have already been killed ... he is Number Four. 
Cast:
Alex Pettyfer ... John
Timothy Olyphant ... Henri
Teresa Palmer ... Number 6
Dianna Agron ... Sarah
Callan McAuliffe ... Sam
Kevin Durand ... Mogadorian Commander
Jake Abel ... Mark
Jeff Hochendoner ... Sherriff James
Patrick Sebes ... Kevin
Greg Townley ... Number 3
Reuben Langdon ... Number 3's Guardian
Emily Wickersham ... Nicole
Molly McGinnis ... Receptionist
Brian Howe ... Frank
Andy Owen ... Bret

Screens:
 
http://www.imagebam.com/image/509d5a131138566 
http://www.imagebam.com/image/1629ee131138652 
http://www.imagebam.com/image/c75346131138710 
http://www.imagebam.com/image/0d55ac131138840